<svg width="96" height="96" viewBox="0 0 96 96" fill="none" xmlns="http://www.w3.org/2000/svg">
<path d="M54 36C52.4087 36 50.8826 35.3679 49.7574 34.2426C48.6321 33.1174 48 31.5913 48 30C48 28.4087 48.6321 26.8826 49.7574 25.7574C50.8826 24.6321 52.4087 24 54 24C55.5913 24 57.1174 24.6321 58.2426 25.7574C59.3679 26.8826 60 28.4087 60 30C60 31.5913 59.3679 33.1174 58.2426 34.2426C57.1174 35.3679 55.5913 36 54 36Z" fill="#CDE3F9"/>
<path d="M76 8H20C16.8203 8.0095 13.7736 9.27683 11.5252 11.5252C9.27683 13.7736 8.0095 16.8203 8 20V55.44L23.52 39.92C25.8068 37.7434 28.843 36.5295 32 36.5295C35.157 36.5295 38.1932 37.7434 40.48 39.92L51.964 51.468L55.516 47.916C57.7705 45.6742 60.8206 44.4158 64 44.4158C67.1794 44.4158 70.2295 45.6742 72.484 47.916L88 63.44V20C87.9905 16.8203 86.7232 13.7736 84.4748 11.5252C82.2264 9.27683 79.1797 8.0095 76 8ZM54 36C52.4087 36 50.8826 35.3679 49.7574 34.2426C48.6321 33.1174 48 31.5913 48 30C48 28.4087 48.6321 26.8826 49.7574 25.7574C50.8826 24.6321 52.4087 24 54 24C55.5913 24 57.1174 24.6321 58.2426 25.7574C59.3679 26.8826 60 28.4087 60 30C60 31.5913 59.3679 33.1174 58.2426 34.2426C57.1174 35.3679 55.5913 36 54 36Z" fill="#72B0ED"/>
<path d="M40.48 39.92C38.1932 37.7435 35.157 36.5295 32 36.5295C28.843 36.5295 25.8068 37.7435 23.52 39.92L8 55.44V76C8.0095 79.1797 9.27683 82.2264 11.5252 84.4748C13.7736 86.7232 16.8203 87.9905 20 88H76C79.26 88 82.38 86.668 84.64 84.32L40.48 39.92Z" fill="#1C7DDE"/>
<path d="M88.0001 63.432L72.4841 47.916C70.2296 45.6742 67.1795 44.4158 64.0001 44.4158C60.8207 44.4158 57.7706 45.6742 55.5161 47.916L51.9641 51.468L84.6241 84.304C86.7921 82.084 88.0041 79.104 88.0001 76V63.432Z" fill="#CDE3F9"/>
</svg>
