<svg width="25" height="24" viewBox="0 0 25 24" fill="none" xmlns="http://www.w3.org/2000/svg">
<path d="M12.5 22C18.0228 22 22.5 17.5228 22.5 12C22.5 6.47715 18.0228 2 12.5 2C6.97715 2 2.5 6.47715 2.5 12C2.5 17.5228 6.97715 22 12.5 22Z" stroke="#808080" stroke-width="2" stroke-linecap="round" stroke-linejoin="round"/>
<path d="M9.59009 9.00008C9.82519 8.33175 10.2892 7.76819 10.9 7.40921C11.5108 7.05024 12.229 6.91902 12.9273 7.03879C13.6255 7.15857 14.2589 7.52161 14.7152 8.06361C15.1714 8.60561 15.4211 9.2916 15.4201 10.0001C15.4201 12.0001 12.4201 13.0001 12.4201 13.0001" stroke="#808080" stroke-width="2" stroke-linecap="round" stroke-linejoin="round"/>
<path d="M12.5 17H12.51" stroke="#808080" stroke-width="2" stroke-linecap="round" stroke-linejoin="round"/>
</svg>
